<svg width="104" height="49" viewBox="0 0 104 49" fill="none" xmlns="http://www.w3.org/2000/svg">
<mask id="mask0_316_9047" style="mask-type:luminance" maskUnits="userSpaceOnUse" x="0" y="0" width="104" height="49">
<path d="M103.078 0H0V48.487H103.078V0Z" fill="white"/>
</mask>
<g mask="url(#mask0_316_9047)">
<path d="M12.54 24.2457C12.5402 23.806 12.5646 23.3667 12.613 22.9297L0.034 22.9757C0.0113333 23.3963 0 23.8197 0 24.2457C0 24.6863 0.0116667 25.1237 0.035 25.5577L12.617 25.6037C12.5652 25.1529 12.5392 24.6994 12.539 24.2457" fill="#D1F599"/>
<path d="M12.6626 25.9424L0.517578 29.2424C0.699339 30.1134 0.930038 30.9734 1.20858 31.8184L13.3806 28.6044C13.0364 27.7484 12.7954 26.8544 12.6626 25.9414" fill="#D1F599"/>
<path d="M13.4951 28.8828L2.61914 35.2148C3.02191 36.0076 3.46826 36.7774 3.95614 37.5208L14.8811 31.2668C14.3267 30.5298 13.8608 29.7295 13.4951 28.8828Z" fill="#D1F599"/>
<path d="M15.0642 31.5039L6.19922 40.4339C6.79308 41.0958 7.42304 41.7244 8.08622 42.3169L17.0182 33.4509C16.293 32.8806 15.6371 32.2271 15.0642 31.5039Z" fill="#D1F599"/>
<path d="M38.4896 4.625C37.1138 3.62353 35.6359 2.77044 34.0806 2.08L31.3456 6.78L32.7316 1.53C31.2691 0.984343 29.757 0.582445 28.2166 0.33L26.5856 6.33L26.5626 0.11C25.7999 0.0366667 25.0269 0 24.2436 0C23.4496 0 22.6649 0.038 21.8896 0.114L21.8646 7.114L20.0296 0.365C18.6298 0.609336 17.2544 0.977447 15.9196 1.465L18.1046 9.753L13.8046 2.358C12.6484 2.91034 11.5379 3.5537 10.4836 4.282L15.5166 13.072L8.33761 5.947C7.47693 6.69576 6.66994 7.50408 5.92261 8.366L14.1566 16.661L4.02561 10.861C3.47219 11.6957 2.97122 12.5641 2.52561 13.461L13.2976 19.733L1.24761 16.549C0.929631 17.4986 0.671459 18.4671 0.474609 19.449L12.6336 22.754C12.9589 20.1993 14.1166 17.8229 15.9277 15.9919C17.7388 14.161 20.1025 12.9775 22.6535 12.6244C25.2045 12.2712 27.8008 12.7681 30.0411 14.0381C32.2815 15.3082 34.0412 17.2808 35.0483 19.651C36.0554 22.0213 36.2539 24.6573 35.613 27.1516C34.972 29.6459 33.5275 31.8597 31.5025 33.4508C29.4775 35.042 26.9849 35.9219 24.4097 35.9547C21.8346 35.9874 19.3204 35.1712 17.2556 33.632L11.0046 44.554C16.3028 48.0052 22.7396 49.25 28.9425 48.023C35.1454 46.796 40.6235 43.1942 44.2087 37.9858C47.7939 32.7774 49.2025 26.3744 48.1341 20.1423C47.0657 13.9101 43.6049 8.34189 38.4896 4.625Z" fill="#D1F599"/>
<path d="M62.1455 35.487L58.9055 25.75H54.5605L54.5745 39.833H57.3745V28.864L60.5595 38.403H63.7155L66.9055 28.864V39.831H69.7055V25.75H65.3885L62.1455 35.487Z" fill="#D1F599"/>
<path d="M89.6594 25.75H86.8574V39.833H89.6594V25.75Z" fill="#D1F599"/>
<path d="M102.116 32.5869C102.719 31.862 103.032 30.9391 102.993 29.9969C103.023 29.4295 102.936 28.862 102.739 28.3291C102.542 27.7961 102.239 27.3089 101.847 26.8969C101.376 26.4881 100.828 26.1765 100.235 25.9798C99.6426 25.7831 99.0171 25.7054 98.3944 25.7509H92.6484V39.8319H95.4484V32.4159L99.9913 39.8319H103.062L99.5944 34.0429C100.567 33.8341 101.448 33.3239 102.113 32.5849M95.4474 31.8909V28.1319H98.1224C98.6641 28.106 99.1969 28.2768 99.6224 28.6129C99.8107 28.781 99.9591 28.9889 100.057 29.2216C100.155 29.4542 100.2 29.7058 100.188 29.9579C100.201 30.2218 100.155 30.4851 100.055 30.7295C99.9546 30.9739 99.8023 31.1935 99.6084 31.3729C99.1988 31.732 98.6667 31.9197 98.1224 31.8969L95.4474 31.8909Z" fill="#D1F599"/>
<path d="M76.4162 25.75L71.5762 39.833H74.5482L75.4962 37.002H79.1162L80.2752 34.902L81.9612 39.835H84.9332L79.9512 25.752L76.4162 25.75ZM76.3592 34.426L78.1992 28.92L79.8412 33.633L80.1102 34.426H76.3592Z" fill="#D1F599"/>
<path d="M79.489 19.7148H76.457V22.7468H79.489V19.7148Z" fill="#D1F599"/>
<path d="M95.0555 15.6168L96.6346 18.3378C97.3782 18.4795 98.1336 18.5505 98.8906 18.5498C99.9903 18.5553 101.086 18.413 102.148 18.1267L103.079 15.3347C103.095 13.6759 102.661 12.0436 101.824 10.6117C101.469 9.97282 100.953 9.43838 100.327 9.06219C99.7011 8.68601 98.9869 8.48133 98.2565 8.46875C97.7292 8.4716 97.2078 8.58045 96.7233 8.78883C96.2389 8.99721 95.8013 9.30087 95.4366 9.68175C94.6848 10.4616 94.0699 11.3625 93.6176 12.3467L92.7576 14.0807C92.6482 14.4385 92.4187 14.7474 92.1079 14.9555C91.7971 15.1636 91.424 15.258 91.0516 15.2227H79.5065C79.5553 14.896 79.5791 14.5661 79.5776 14.2357V9.76575H76.5325V13.1657C76.5446 13.5865 76.5111 14.0073 76.4326 14.4208C76.4086 14.5568 76.3543 14.6858 76.2739 14.7981C76.1934 14.9105 76.0887 15.0033 75.9675 15.0697C75.6685 15.1929 75.3453 15.2459 75.0226 15.2248H59.2136L60.2286 9.76775H56.9855L54.5605 22.7398H57.8066L59.1196 15.7448L60.5845 18.4388H75.0226C75.5188 18.4421 76.0142 18.3996 76.5026 18.3118C77.3402 18.1823 78.11 17.7751 78.6885 17.1558C79.0318 16.7361 79.2765 16.2446 79.4045 15.7178L80.9435 18.4388L91.3356 18.4248C92.1325 18.4839 92.9263 18.2755 93.5916 17.8327C94.2671 17.2371 94.773 16.4733 95.0576 15.6188M96.3976 12.8698C96.5776 12.5435 96.8324 12.2647 97.1412 12.0561C97.4499 11.8475 97.8038 11.7151 98.1736 11.6698C98.5595 11.6984 98.9298 11.8334 99.2435 12.0599C99.5572 12.2864 99.802 12.5955 99.9506 12.9528C100.338 13.6934 100.539 14.517 100.538 15.3528C99.8131 15.4792 99.0789 15.5408 98.3436 15.5368C97.281 15.5389 96.2216 15.4208 95.1855 15.1848C95.5027 14.3714 95.9095 13.5959 96.3986 12.8727" fill="#D1F599"/>
<path d="M75.0613 19.7148H72.0293V22.7468H75.0613V19.7148Z" fill="#D1F599"/>
</g>
</svg>
